<svg width="640" height="480" viewBox="0 0 640 480" fill="none" xmlns="http://www.w3.org/2000/svg">
  <rect x="74" y="92" width="492" height="296" rx="42" fill="#F5F5F7"/>
  <rect x="104" y="122" width="208" height="96" rx="28" fill="#FFFFFF"/>
  <rect x="328" y="204" width="208" height="112" rx="30" fill="#0066CC"/>
  <rect x="130" y="154" width="120" height="12" rx="6" fill="#1D1D1F"/>
  <rect x="130" y="180" width="152" height="10" rx="5" fill="#D2D2D7"/>
  <rect x="356" y="236" width="122" height="12" rx="6" fill="#FFFFFF"/>
  <rect x="356" y="264" width="148" height="10" rx="5" fill="#FFFFFF" fill-opacity=".6"/>
  <circle cx="268" cy="289" r="44" fill="#1D1D1F"/>
  <circle cx="268" cy="274" r="13" fill="#FFFFFF"/>
  <path d="M239 316C244.936 302.964 255.021 297 268 297C280.979 297 291.064 302.964 297 316" stroke="#FFFFFF" stroke-width="11" stroke-linecap="round"/>
  <rect x="122" y="352" width="396" height="24" rx="12" fill="#000000" fill-opacity=".12"/>
</svg>
